<mxfile host="65bd71144e">
    <diagram id="C5RBs43oDa-KdzZeNtuy" name="Page-1">
        <mxGraphModel dx="1940" dy="764" grid="1" gridSize="10" guides="1" tooltips="1" connect="1" arrows="1" fold="1" page="1" pageScale="1" pageWidth="827" pageHeight="1169" math="0" shadow="0">
            <root>
                <mxCell id="WIyWlLk6GJQsqaUBKTNV-0"/>
                <mxCell id="WIyWlLk6GJQsqaUBKTNV-1" parent="WIyWlLk6GJQsqaUBKTNV-0"/>
                <mxCell id="M7CGMbNuYNeq0SnUNNgH-6" value="ทบทวนสัญลักษณ์" style="swimlane;fontFamily=Sarabun;fontSource=https%3A%2F%2Ffonts.googleapis.com%2Fcss%3Ffamily%3DSarabun;" parent="WIyWlLk6GJQsqaUBKTNV-1" vertex="1">
                    <mxGeometry x="-720" y="20" width="650" height="290" as="geometry"/>
                </mxCell>
                <mxCell id="M7CGMbNuYNeq0SnUNNgH-2" value="&lt;font data-font-src=&quot;https://fonts.googleapis.com/css?family=Sarabun&quot; face=&quot;Sarabun&quot;&gt;เริ่มต้น&lt;/font&gt;" style="ellipse;whiteSpace=wrap;html=1;" parent="M7CGMbNuYNeq0SnUNNgH-6" vertex="1">
                    <mxGeometry x="20" y="40" width="130" height="30" as="geometry"/>
                </mxCell>
                <mxCell id="M7CGMbNuYNeq0SnUNNgH-5" value="" style="endArrow=classic;html=1;rounded=0;" parent="M7CGMbNuYNeq0SnUNNgH-6" edge="1">
                    <mxGeometry width="50" height="50" relative="1" as="geometry">
                        <mxPoint x="84.5" y="70" as="sourcePoint"/>
                        <mxPoint x="84.5" y="120" as="targetPoint"/>
                    </mxGeometry>
                </mxCell>
                <mxCell id="M7CGMbNuYNeq0SnUNNgH-3" value="&lt;font face=&quot;Sarabun&quot;&gt;สิ้นสุด&lt;/font&gt;" style="ellipse;whiteSpace=wrap;html=1;" parent="M7CGMbNuYNeq0SnUNNgH-6" vertex="1">
                    <mxGeometry x="150" y="90" width="130" height="30" as="geometry"/>
                </mxCell>
                <mxCell id="M7CGMbNuYNeq0SnUNNgH-4" value="" style="endArrow=classic;html=1;rounded=0;" parent="M7CGMbNuYNeq0SnUNNgH-6" edge="1">
                    <mxGeometry width="50" height="50" relative="1" as="geometry">
                        <mxPoint x="214.5" y="40" as="sourcePoint"/>
                        <mxPoint x="214.5" y="90" as="targetPoint"/>
                    </mxGeometry>
                </mxCell>
                <mxCell id="mvioNwK95yMqdUQ73LqQ-0" value="กระบวนการ" style="rounded=0;whiteSpace=wrap;html=1;fontFamily=Sarabun;fontSource=https%3A%2F%2Ffonts.googleapis.com%2Fcss%3Ffamily%3DSarabun;" parent="M7CGMbNuYNeq0SnUNNgH-6" vertex="1">
                    <mxGeometry x="320" y="70" width="120" height="30" as="geometry"/>
                </mxCell>
                <mxCell id="mvioNwK95yMqdUQ73LqQ-1" value="" style="endArrow=classic;html=1;rounded=0;" parent="M7CGMbNuYNeq0SnUNNgH-6" edge="1">
                    <mxGeometry width="50" height="50" relative="1" as="geometry">
                        <mxPoint x="379" y="40" as="sourcePoint"/>
                        <mxPoint x="379.5" y="70" as="targetPoint"/>
                    </mxGeometry>
                </mxCell>
                <mxCell id="mvioNwK95yMqdUQ73LqQ-2" value="" style="endArrow=classic;html=1;rounded=0;" parent="M7CGMbNuYNeq0SnUNNgH-6" edge="1">
                    <mxGeometry width="50" height="50" relative="1" as="geometry">
                        <mxPoint x="379.75" y="100" as="sourcePoint"/>
                        <mxPoint x="380.25" y="130" as="targetPoint"/>
                    </mxGeometry>
                </mxCell>
                <mxCell id="mvioNwK95yMqdUQ73LqQ-3" value="ประโยคเงื่อนไข" style="rhombus;whiteSpace=wrap;html=1;fontFamily=Sarabun;fontSource=https%3A%2F%2Ffonts.googleapis.com%2Fcss%3Ffamily%3DSarabun;" parent="M7CGMbNuYNeq0SnUNNgH-6" vertex="1">
                    <mxGeometry x="490" y="60" width="100" height="60" as="geometry"/>
                </mxCell>
                <mxCell id="mvioNwK95yMqdUQ73LqQ-4" value="" style="endArrow=classic;html=1;rounded=0;" parent="M7CGMbNuYNeq0SnUNNgH-6" edge="1">
                    <mxGeometry width="50" height="50" relative="1" as="geometry">
                        <mxPoint x="539.71" y="30" as="sourcePoint"/>
                        <mxPoint x="540.21" y="60" as="targetPoint"/>
                    </mxGeometry>
                </mxCell>
                <mxCell id="mvioNwK95yMqdUQ73LqQ-5" value="" style="endArrow=classic;html=1;rounded=0;" parent="M7CGMbNuYNeq0SnUNNgH-6" edge="1">
                    <mxGeometry width="50" height="50" relative="1" as="geometry">
                        <mxPoint x="539.71" y="120" as="sourcePoint"/>
                        <mxPoint x="540" y="175" as="targetPoint"/>
                    </mxGeometry>
                </mxCell>
                <mxCell id="mvioNwK95yMqdUQ73LqQ-7" value="จริง" style="edgeLabel;html=1;align=center;verticalAlign=middle;resizable=0;points=[];fontFamily=Sarabun;fontSource=https%3A%2F%2Ffonts.googleapis.com%2Fcss%3Ffamily%3DSarabun;" parent="mvioNwK95yMqdUQ73LqQ-5" vertex="1" connectable="0">
                    <mxGeometry x="-0.4142" y="-1" relative="1" as="geometry">
                        <mxPoint as="offset"/>
                    </mxGeometry>
                </mxCell>
                <mxCell id="mvioNwK95yMqdUQ73LqQ-6" value="" style="endArrow=classic;html=1;rounded=0;exitX=1;exitY=0.5;exitDx=0;exitDy=0;" parent="M7CGMbNuYNeq0SnUNNgH-6" source="mvioNwK95yMqdUQ73LqQ-3" edge="1">
                    <mxGeometry width="50" height="50" relative="1" as="geometry">
                        <mxPoint x="620" y="95" as="sourcePoint"/>
                        <mxPoint x="610" y="175" as="targetPoint"/>
                        <Array as="points">
                            <mxPoint x="610" y="90"/>
                        </Array>
                    </mxGeometry>
                </mxCell>
                <mxCell id="mvioNwK95yMqdUQ73LqQ-8" value="&lt;font data-font-src=&quot;https://fonts.googleapis.com/css?family=Sarabun&quot; face=&quot;Sarabun&quot;&gt;เท็จ&lt;/font&gt;" style="edgeLabel;html=1;align=center;verticalAlign=middle;resizable=0;points=[];" parent="mvioNwK95yMqdUQ73LqQ-6" vertex="1" connectable="0">
                    <mxGeometry x="-0.0019" y="-2" relative="1" as="geometry">
                        <mxPoint as="offset"/>
                    </mxGeometry>
                </mxCell>
                <mxCell id="mvioNwK95yMqdUQ73LqQ-9" value="&lt;font data-font-src=&quot;https://fonts.googleapis.com/css?family=Sarabun&quot; face=&quot;Sarabun&quot;&gt;ฟังก์ชัน/โมดูล&lt;/font&gt;" style="shape=process;whiteSpace=wrap;html=1;backgroundOutline=1;" parent="M7CGMbNuYNeq0SnUNNgH-6" vertex="1">
                    <mxGeometry x="25" y="180" width="120" height="30" as="geometry"/>
                </mxCell>
                <mxCell id="mvioNwK95yMqdUQ73LqQ-11" value="" style="endArrow=classic;html=1;rounded=0;" parent="M7CGMbNuYNeq0SnUNNgH-6" edge="1">
                    <mxGeometry width="50" height="50" relative="1" as="geometry">
                        <mxPoint x="84.70999999999998" y="150" as="sourcePoint"/>
                        <mxPoint x="85.20999999999998" y="180" as="targetPoint"/>
                    </mxGeometry>
                </mxCell>
                <mxCell id="mvioNwK95yMqdUQ73LqQ-12" value="" style="endArrow=classic;html=1;rounded=0;" parent="M7CGMbNuYNeq0SnUNNgH-6" edge="1">
                    <mxGeometry width="50" height="50" relative="1" as="geometry">
                        <mxPoint x="84.70999999999998" y="210" as="sourcePoint"/>
                        <mxPoint x="85.20999999999998" y="240" as="targetPoint"/>
                    </mxGeometry>
                </mxCell>
                <mxCell id="mvioNwK95yMqdUQ73LqQ-13" value="" style="strokeWidth=2;html=1;shape=mxgraph.flowchart.start_2;whiteSpace=wrap;" parent="M7CGMbNuYNeq0SnUNNgH-6" vertex="1">
                    <mxGeometry x="205" y="185" width="20" height="20" as="geometry"/>
                </mxCell>
                <mxCell id="mvioNwK95yMqdUQ73LqQ-16" value="" style="endArrow=classic;html=1;rounded=0;" parent="M7CGMbNuYNeq0SnUNNgH-6" edge="1">
                    <mxGeometry width="50" height="50" relative="1" as="geometry">
                        <mxPoint x="214.70999999999998" y="155" as="sourcePoint"/>
                        <mxPoint x="215.20999999999998" y="185" as="targetPoint"/>
                    </mxGeometry>
                </mxCell>
                <mxCell id="mvioNwK95yMqdUQ73LqQ-17" value="" style="endArrow=classic;html=1;rounded=0;entryX=0;entryY=0.5;entryDx=0;entryDy=0;entryPerimeter=0;" parent="M7CGMbNuYNeq0SnUNNgH-6" target="mvioNwK95yMqdUQ73LqQ-13" edge="1">
                    <mxGeometry width="50" height="50" relative="1" as="geometry">
                        <mxPoint x="189.99999999999997" y="155" as="sourcePoint"/>
                        <mxPoint x="190.49999999999997" y="185" as="targetPoint"/>
                        <Array as="points">
                            <mxPoint x="190" y="180"/>
                        </Array>
                    </mxGeometry>
                </mxCell>
                <mxCell id="mvioNwK95yMqdUQ73LqQ-18" value="" style="endArrow=classic;html=1;rounded=0;entryX=1;entryY=0.5;entryDx=0;entryDy=0;entryPerimeter=0;" parent="M7CGMbNuYNeq0SnUNNgH-6" target="mvioNwK95yMqdUQ73LqQ-13" edge="1">
                    <mxGeometry width="50" height="50" relative="1" as="geometry">
                        <mxPoint x="239.99999999999997" y="155" as="sourcePoint"/>
                        <mxPoint x="240.49999999999997" y="185" as="targetPoint"/>
                        <Array as="points">
                            <mxPoint x="240" y="180"/>
                        </Array>
                    </mxGeometry>
                </mxCell>
                <mxCell id="mvioNwK95yMqdUQ73LqQ-19" value="" style="endArrow=classic;html=1;rounded=0;" parent="M7CGMbNuYNeq0SnUNNgH-6" edge="1">
                    <mxGeometry width="50" height="50" relative="1" as="geometry">
                        <mxPoint x="214.70999999999998" y="205" as="sourcePoint"/>
                        <mxPoint x="215.20999999999998" y="235" as="targetPoint"/>
                    </mxGeometry>
                </mxCell>
                <mxCell id="mvioNwK95yMqdUQ73LqQ-20" value="&lt;font data-font-src=&quot;https://fonts.googleapis.com/css?family=Sarabun&quot; face=&quot;Sarabun&quot;&gt;ตัวเชื่อม&lt;/font&gt;" style="text;html=1;align=center;verticalAlign=middle;resizable=0;points=[];autosize=1;strokeColor=none;fillColor=none;" parent="M7CGMbNuYNeq0SnUNNgH-6" vertex="1">
                    <mxGeometry x="220" y="190" width="60" height="30" as="geometry"/>
                </mxCell>
                <mxCell id="mvioNwK95yMqdUQ73LqQ-25" value="" style="endArrow=classic;html=1;rounded=0;" parent="M7CGMbNuYNeq0SnUNNgH-6" edge="1">
                    <mxGeometry width="50" height="50" relative="1" as="geometry">
                        <mxPoint x="353.71" y="165" as="sourcePoint"/>
                        <mxPoint x="354.21" y="195" as="targetPoint"/>
                    </mxGeometry>
                </mxCell>
                <mxCell id="mvioNwK95yMqdUQ73LqQ-21" value="" style="verticalLabelPosition=bottom;verticalAlign=top;html=1;shape=offPageConnector;rounded=0;size=0.5;" parent="M7CGMbNuYNeq0SnUNNgH-6" vertex="1">
                    <mxGeometry x="339" y="195" width="30" height="30" as="geometry"/>
                </mxCell>
                <mxCell id="mvioNwK95yMqdUQ73LqQ-26" value="" style="endArrow=classic;html=1;rounded=0;" parent="M7CGMbNuYNeq0SnUNNgH-6" edge="1">
                    <mxGeometry width="50" height="50" relative="1" as="geometry">
                        <mxPoint x="405.71" y="195" as="sourcePoint"/>
                        <mxPoint x="406.21" y="225" as="targetPoint"/>
                    </mxGeometry>
                </mxCell>
                <mxCell id="mvioNwK95yMqdUQ73LqQ-27" value="" style="verticalLabelPosition=bottom;verticalAlign=top;html=1;shape=offPageConnector;rounded=0;size=0.5;" parent="M7CGMbNuYNeq0SnUNNgH-6" vertex="1">
                    <mxGeometry x="391" y="165" width="30" height="30" as="geometry"/>
                </mxCell>
                <mxCell id="mvioNwK95yMqdUQ73LqQ-28" value="หน้าต่อไป" style="text;html=1;align=center;verticalAlign=middle;resizable=0;points=[];autosize=1;strokeColor=none;fillColor=none;fontFamily=Sarabun;fontSource=https%3A%2F%2Ffonts.googleapis.com%2Fcss%3Ffamily%3DSarabun;" parent="M7CGMbNuYNeq0SnUNNgH-6" vertex="1">
                    <mxGeometry x="345" y="220" width="70" height="30" as="geometry"/>
                </mxCell>
                <mxCell id="mvioNwK95yMqdUQ73LqQ-29" value="ก" style="text;html=1;align=center;verticalAlign=middle;resizable=0;points=[];autosize=1;strokeColor=none;fillColor=none;fontFamily=Sarabun;fontSource=https%3A%2F%2Ffonts.googleapis.com%2Fcss%3Ffamily%3DSarabun;" parent="M7CGMbNuYNeq0SnUNNgH-6" vertex="1">
                    <mxGeometry x="339" y="190" width="30" height="30" as="geometry"/>
                </mxCell>
                <mxCell id="mvioNwK95yMqdUQ73LqQ-30" value="ก" style="text;html=1;align=center;verticalAlign=middle;resizable=0;points=[];autosize=1;strokeColor=none;fillColor=none;fontFamily=Sarabun;fontSource=https%3A%2F%2Ffonts.googleapis.com%2Fcss%3Ffamily%3DSarabun;" parent="M7CGMbNuYNeq0SnUNNgH-6" vertex="1">
                    <mxGeometry x="391" y="160" width="30" height="30" as="geometry"/>
                </mxCell>
                <mxCell id="mvioNwK95yMqdUQ73LqQ-32" value="แสดงผล/รับค่า" style="shape=parallelogram;perimeter=parallelogramPerimeter;whiteSpace=wrap;html=1;fixedSize=1;fontFamily=Sarabun;fontSource=https%3A%2F%2Ffonts.googleapis.com%2Fcss%3Ffamily%3DSarabun;" parent="M7CGMbNuYNeq0SnUNNgH-6" vertex="1">
                    <mxGeometry x="450" y="210" width="120" height="30" as="geometry"/>
                </mxCell>
                <mxCell id="mvioNwK95yMqdUQ73LqQ-33" value="" style="endArrow=classic;html=1;rounded=0;" parent="M7CGMbNuYNeq0SnUNNgH-6" edge="1">
                    <mxGeometry width="50" height="50" relative="1" as="geometry">
                        <mxPoint x="509.71" y="180" as="sourcePoint"/>
                        <mxPoint x="510.21" y="210" as="targetPoint"/>
                    </mxGeometry>
                </mxCell>
                <mxCell id="mvioNwK95yMqdUQ73LqQ-34" value="" style="endArrow=classic;html=1;rounded=0;" parent="M7CGMbNuYNeq0SnUNNgH-6" edge="1">
                    <mxGeometry width="50" height="50" relative="1" as="geometry">
                        <mxPoint x="509.71" y="240" as="sourcePoint"/>
                        <mxPoint x="510.21" y="270" as="targetPoint"/>
                    </mxGeometry>
                </mxCell>
                <mxCell id="mvioNwK95yMqdUQ73LqQ-36" value="แก้ไขโจทย์ปัญหา" style="swimlane;fontFamily=Sarabun;fontSource=https%3A%2F%2Ffonts.googleapis.com%2Fcss%3Ffamily%3DSarabun;" parent="WIyWlLk6GJQsqaUBKTNV-1" vertex="1">
                    <mxGeometry x="-740" y="640" width="860" height="1670" as="geometry"/>
                </mxCell>
                <mxCell id="23" value="" style="edgeStyle=none;html=1;" edge="1" parent="mvioNwK95yMqdUQ73LqQ-36" source="mvioNwK95yMqdUQ73LqQ-35" target="22">
                    <mxGeometry relative="1" as="geometry"/>
                </mxCell>
                <mxCell id="mvioNwK95yMqdUQ73LqQ-35" value="&lt;font data-font-src=&quot;https://fonts.googleapis.com/css?family=Sarabun&quot; face=&quot;Sarabun&quot;&gt;เริ่มต้น&lt;/font&gt;" style="ellipse;whiteSpace=wrap;html=1;" parent="mvioNwK95yMqdUQ73LqQ-36" vertex="1">
                    <mxGeometry x="125" y="40" width="130" height="30" as="geometry"/>
                </mxCell>
                <mxCell id="mvioNwK95yMqdUQ73LqQ-69" value="&lt;font face=&quot;Sarabun&quot;&gt;สิ้นสุด&lt;/font&gt;" style="ellipse;whiteSpace=wrap;html=1;" parent="mvioNwK95yMqdUQ73LqQ-36" vertex="1">
                    <mxGeometry x="255" y="1620" width="130" height="30" as="geometry"/>
                </mxCell>
                <mxCell id="3" value="" style="edgeStyle=none;html=1;" edge="1" parent="mvioNwK95yMqdUQ73LqQ-36">
                    <mxGeometry relative="1" as="geometry">
                        <mxPoint x="190" y="135" as="sourcePoint"/>
                        <mxPoint x="190" y="170" as="targetPoint"/>
                    </mxGeometry>
                </mxCell>
                <mxCell id="5" value="" style="edgeStyle=none;html=1;" edge="1" parent="mvioNwK95yMqdUQ73LqQ-36" target="4">
                    <mxGeometry relative="1" as="geometry">
                        <mxPoint x="190" y="249.13" as="sourcePoint"/>
                    </mxGeometry>
                </mxCell>
                <mxCell id="9" value="จริง" style="edgeLabel;html=1;align=center;verticalAlign=middle;resizable=0;points=[];" vertex="1" connectable="0" parent="5">
                    <mxGeometry x="-0.454" y="-2" relative="1" as="geometry">
                        <mxPoint as="offset"/>
                    </mxGeometry>
                </mxCell>
                <mxCell id="7" value="" style="edgeStyle=none;html=1;entryX=0.5;entryY=0;entryDx=0;entryDy=0;" edge="1" parent="mvioNwK95yMqdUQ73LqQ-36" target="6">
                    <mxGeometry relative="1" as="geometry">
                        <mxPoint x="229.00215264187875" y="209.43346379647755" as="sourcePoint"/>
                        <Array as="points">
                            <mxPoint x="519.1" y="210.5"/>
                        </Array>
                    </mxGeometry>
                </mxCell>
                <mxCell id="8" value="เท็จ" style="edgeLabel;html=1;align=center;verticalAlign=middle;resizable=0;points=[];" vertex="1" connectable="0" parent="7">
                    <mxGeometry x="-0.2721" y="3" relative="1" as="geometry">
                        <mxPoint as="offset"/>
                    </mxGeometry>
                </mxCell>
                <mxCell id="12" value="" style="edgeStyle=none;html=1;" edge="1" parent="mvioNwK95yMqdUQ73LqQ-36" source="4" target="11">
                    <mxGeometry relative="1" as="geometry"/>
                </mxCell>
                <mxCell id="4" value="เตรียมหม้อต้มน้ำ" style="whiteSpace=wrap;html=1;" vertex="1" parent="mvioNwK95yMqdUQ73LqQ-36">
                    <mxGeometry x="130" y="291.63" width="120" height="33.75" as="geometry"/>
                </mxCell>
                <mxCell id="41" value="" style="edgeStyle=none;html=1;" edge="1" parent="mvioNwK95yMqdUQ73LqQ-36" source="6" target="40">
                    <mxGeometry relative="1" as="geometry"/>
                </mxCell>
                <mxCell id="6" value="ไปซื้อที่ตลาด" style="whiteSpace=wrap;html=1;" vertex="1" parent="mvioNwK95yMqdUQ73LqQ-36">
                    <mxGeometry x="459.1" y="241.13" width="120" height="32.5" as="geometry"/>
                </mxCell>
                <mxCell id="14" value="" style="edgeStyle=none;html=1;startArrow=none;" edge="1" parent="mvioNwK95yMqdUQ73LqQ-36" source="68" target="13">
                    <mxGeometry relative="1" as="geometry"/>
                </mxCell>
                <mxCell id="11" value="เอาหม้อตั้งบนเตาแก๊ส" style="whiteSpace=wrap;html=1;" vertex="1" parent="mvioNwK95yMqdUQ73LqQ-36">
                    <mxGeometry x="130" y="351.63" width="120" height="30" as="geometry"/>
                </mxCell>
                <mxCell id="62" value="" style="edgeStyle=none;html=1;" edge="1" parent="mvioNwK95yMqdUQ73LqQ-36" source="13" target="61">
                    <mxGeometry relative="1" as="geometry"/>
                </mxCell>
                <mxCell id="13" value="เปิดแก๊สและจุดไฟ" style="whiteSpace=wrap;html=1;" vertex="1" parent="mvioNwK95yMqdUQ73LqQ-36">
                    <mxGeometry x="130" y="411.2" width="120" height="30" as="geometry"/>
                </mxCell>
                <mxCell id="21" value="มี ?" style="rhombus;whiteSpace=wrap;html=1;" vertex="1" parent="mvioNwK95yMqdUQ73LqQ-36">
                    <mxGeometry x="150" y="169.13" width="80" height="80" as="geometry"/>
                </mxCell>
                <mxCell id="22" value="หยิบมาม่า" style="shape=parallelogram;perimeter=parallelogramPerimeter;whiteSpace=wrap;html=1;fixedSize=1;" vertex="1" parent="mvioNwK95yMqdUQ73LqQ-36">
                    <mxGeometry x="130" y="110" width="120" height="30" as="geometry"/>
                </mxCell>
                <mxCell id="29" value="" style="edgeStyle=none;html=1;startArrow=none;" edge="1" parent="mvioNwK95yMqdUQ73LqQ-36" source="74" target="28">
                    <mxGeometry relative="1" as="geometry"/>
                </mxCell>
                <mxCell id="31" value="" style="edgeStyle=none;html=1;" edge="1" parent="mvioNwK95yMqdUQ73LqQ-36" source="25" target="30">
                    <mxGeometry relative="1" as="geometry">
                        <Array as="points">
                            <mxPoint x="454.09000000000003" y="585"/>
                        </Array>
                    </mxGeometry>
                </mxCell>
                <mxCell id="33" value="เท็จ" style="edgeLabel;html=1;align=center;verticalAlign=middle;resizable=0;points=[];" vertex="1" connectable="0" parent="31">
                    <mxGeometry x="-0.4941" y="2" relative="1" as="geometry">
                        <mxPoint as="offset"/>
                    </mxGeometry>
                </mxCell>
                <mxCell id="25" value="น้ำเดือด ?" style="rhombus;whiteSpace=wrap;html=1;" vertex="1" parent="mvioNwK95yMqdUQ73LqQ-36">
                    <mxGeometry x="289.09000000000003" y="550" width="70" height="70" as="geometry"/>
                </mxCell>
                <mxCell id="79" value="" style="edgeStyle=none;html=1;" edge="1" parent="mvioNwK95yMqdUQ73LqQ-36" source="28" target="78">
                    <mxGeometry relative="1" as="geometry"/>
                </mxCell>
                <mxCell id="28" value="ใส่มาม่าลงไปแล้วรอ 3 นาที" style="whiteSpace=wrap;html=1;" vertex="1" parent="mvioNwK95yMqdUQ73LqQ-36">
                    <mxGeometry x="264.09000000000003" y="680" width="120" height="45" as="geometry"/>
                </mxCell>
                <mxCell id="77" style="edgeStyle=none;html=1;" edge="1" parent="mvioNwK95yMqdUQ73LqQ-36" source="30" target="74">
                    <mxGeometry relative="1" as="geometry">
                        <Array as="points">
                            <mxPoint x="454" y="660"/>
                        </Array>
                    </mxGeometry>
                </mxCell>
                <mxCell id="30" value="รอจนน้ำเดือด" style="whiteSpace=wrap;html=1;" vertex="1" parent="mvioNwK95yMqdUQ73LqQ-36">
                    <mxGeometry x="399.09000000000003" y="610" width="110" height="30" as="geometry"/>
                </mxCell>
                <mxCell id="43" value="" style="edgeStyle=none;html=1;" edge="1" parent="mvioNwK95yMqdUQ73LqQ-36" source="40" target="42">
                    <mxGeometry relative="1" as="geometry"/>
                </mxCell>
                <mxCell id="48" value="มี" style="edgeLabel;html=1;align=center;verticalAlign=middle;resizable=0;points=[];" vertex="1" connectable="0" parent="43">
                    <mxGeometry x="-0.6447" y="-2" relative="1" as="geometry">
                        <mxPoint as="offset"/>
                    </mxGeometry>
                </mxCell>
                <mxCell id="45" value="" style="edgeStyle=none;html=1;" edge="1" parent="mvioNwK95yMqdUQ73LqQ-36" source="40" target="44">
                    <mxGeometry relative="1" as="geometry">
                        <Array as="points">
                            <mxPoint x="640" y="360"/>
                        </Array>
                    </mxGeometry>
                </mxCell>
                <mxCell id="49" value="ไม่มี" style="edgeLabel;html=1;align=center;verticalAlign=middle;resizable=0;points=[];" vertex="1" connectable="0" parent="45">
                    <mxGeometry x="-0.3944" relative="1" as="geometry">
                        <mxPoint as="offset"/>
                    </mxGeometry>
                </mxCell>
                <mxCell id="40" value="มีของ ?" style="rhombus;whiteSpace=wrap;html=1;" vertex="1" parent="mvioNwK95yMqdUQ73LqQ-36">
                    <mxGeometry x="484.90999999999997" y="325.38" width="68.37" height="68.37" as="geometry"/>
                </mxCell>
                <mxCell id="52" value="" style="edgeStyle=none;html=1;" edge="1" parent="mvioNwK95yMqdUQ73LqQ-36" source="42" target="51">
                    <mxGeometry relative="1" as="geometry"/>
                </mxCell>
                <mxCell id="53" value="พอ" style="edgeLabel;html=1;align=center;verticalAlign=middle;resizable=0;points=[];" vertex="1" connectable="0" parent="52">
                    <mxGeometry x="-0.4019" y="-2" relative="1" as="geometry">
                        <mxPoint as="offset"/>
                    </mxGeometry>
                </mxCell>
                <mxCell id="56" value="" style="edgeStyle=none;html=1;" edge="1" parent="mvioNwK95yMqdUQ73LqQ-36" source="42" target="55">
                    <mxGeometry relative="1" as="geometry">
                        <Array as="points">
                            <mxPoint x="615" y="474"/>
                        </Array>
                    </mxGeometry>
                </mxCell>
                <mxCell id="42" value="เงินพอ ?" style="rhombus;whiteSpace=wrap;html=1;" vertex="1" parent="mvioNwK95yMqdUQ73LqQ-36">
                    <mxGeometry x="484.9100000000001" y="440" width="68.37" height="68.37" as="geometry"/>
                </mxCell>
                <mxCell id="44" value="ไปตลาดอื่น" style="whiteSpace=wrap;html=1;" vertex="1" parent="mvioNwK95yMqdUQ73LqQ-36">
                    <mxGeometry x="590" y="381.63" width="92.54" height="29.57" as="geometry"/>
                </mxCell>
                <mxCell id="47" value="" style="shape=waypoint;sketch=0;fillStyle=solid;size=6;pointerEvents=1;points=[];fillColor=none;resizable=0;rotatable=0;perimeter=centerPerimeter;snapToPoint=1;" vertex="1" parent="mvioNwK95yMqdUQ73LqQ-36">
                    <mxGeometry x="509.09000000000003" y="291.63" width="20" height="20" as="geometry"/>
                </mxCell>
                <mxCell id="46" style="edgeStyle=none;html=1;entryX=0.672;entryY=0.535;entryDx=0;entryDy=0;entryPerimeter=0;" edge="1" parent="mvioNwK95yMqdUQ73LqQ-36" source="44" target="47">
                    <mxGeometry relative="1" as="geometry">
                        <mxPoint x="540" y="299.9999999999998" as="targetPoint"/>
                        <Array as="points">
                            <mxPoint x="640" y="430"/>
                            <mxPoint x="690" y="430"/>
                            <mxPoint x="690" y="302"/>
                        </Array>
                    </mxGeometry>
                </mxCell>
                <mxCell id="50" value="" style="shape=waypoint;sketch=0;fillStyle=solid;size=6;pointerEvents=1;points=[];fillColor=none;resizable=0;rotatable=0;perimeter=centerPerimeter;snapToPoint=1;" vertex="1" parent="mvioNwK95yMqdUQ73LqQ-36">
                    <mxGeometry x="180" y="265" width="20" height="20" as="geometry"/>
                </mxCell>
                <mxCell id="54" style="edgeStyle=none;html=1;entryX=1.157;entryY=0.283;entryDx=0;entryDy=0;entryPerimeter=0;" edge="1" parent="mvioNwK95yMqdUQ73LqQ-36" source="51" target="50">
                    <mxGeometry relative="1" as="geometry">
                        <Array as="points">
                            <mxPoint x="520" y="590"/>
                            <mxPoint x="460" y="590"/>
                            <mxPoint x="460" y="310"/>
                            <mxPoint x="360" y="310"/>
                            <mxPoint x="360" y="275"/>
                        </Array>
                    </mxGeometry>
                </mxCell>
                <mxCell id="51" value="ซื้อมาม่า" style="whiteSpace=wrap;html=1;" vertex="1" parent="mvioNwK95yMqdUQ73LqQ-36">
                    <mxGeometry x="473.64" y="540" width="90.9" height="30" as="geometry"/>
                </mxCell>
                <mxCell id="55" value="ไปขอพ่อ/แม่" style="whiteSpace=wrap;html=1;" vertex="1" parent="mvioNwK95yMqdUQ73LqQ-36">
                    <mxGeometry x="564.54" y="489" width="100" height="30.37" as="geometry"/>
                </mxCell>
                <mxCell id="60" value="" style="shape=waypoint;sketch=0;fillStyle=solid;size=6;pointerEvents=1;points=[];fillColor=none;resizable=0;rotatable=0;perimeter=centerPerimeter;snapToPoint=1;" vertex="1" parent="mvioNwK95yMqdUQ73LqQ-36">
                    <mxGeometry x="680" y="411.6300000000001" width="20" height="20" as="geometry"/>
                </mxCell>
                <mxCell id="57" style="edgeStyle=none;html=1;" edge="1" parent="mvioNwK95yMqdUQ73LqQ-36" source="55" target="60">
                    <mxGeometry relative="1" as="geometry">
                        <mxPoint x="690" y="450" as="targetPoint"/>
                        <Array as="points">
                            <mxPoint x="615" y="540"/>
                            <mxPoint x="690" y="540"/>
                        </Array>
                    </mxGeometry>
                </mxCell>
                <mxCell id="63" style="edgeStyle=none;html=1;entryX=0.5;entryY=0;entryDx=0;entryDy=0;" edge="1" parent="mvioNwK95yMqdUQ73LqQ-36" source="61" target="25">
                    <mxGeometry relative="1" as="geometry">
                        <Array as="points">
                            <mxPoint x="324" y="495"/>
                        </Array>
                    </mxGeometry>
                </mxCell>
                <mxCell id="64" value="เท็จ" style="edgeLabel;html=1;align=center;verticalAlign=middle;resizable=0;points=[];" vertex="1" connectable="0" parent="63">
                    <mxGeometry x="-0.5195" y="1" relative="1" as="geometry">
                        <mxPoint as="offset"/>
                    </mxGeometry>
                </mxCell>
                <mxCell id="66" value="" style="edgeStyle=none;html=1;" edge="1" parent="mvioNwK95yMqdUQ73LqQ-36" source="61" target="65">
                    <mxGeometry relative="1" as="geometry"/>
                </mxCell>
                <mxCell id="61" value="แก๊สหมด ?" style="rhombus;whiteSpace=wrap;html=1;" vertex="1" parent="mvioNwK95yMqdUQ73LqQ-36">
                    <mxGeometry x="155" y="460" width="70" height="70" as="geometry"/>
                </mxCell>
                <mxCell id="72" value="" style="edgeStyle=none;html=1;" edge="1" parent="mvioNwK95yMqdUQ73LqQ-36" source="65" target="71">
                    <mxGeometry relative="1" as="geometry"/>
                </mxCell>
                <mxCell id="65" value="บอกพ่อ/แม่" style="whiteSpace=wrap;html=1;" vertex="1" parent="mvioNwK95yMqdUQ73LqQ-36">
                    <mxGeometry x="140" y="550" width="100" height="30" as="geometry"/>
                </mxCell>
                <mxCell id="67" style="edgeStyle=none;html=1;exitX=0;exitY=0.5;exitDx=0;exitDy=0;" edge="1" parent="mvioNwK95yMqdUQ73LqQ-36" source="71" target="68">
                    <mxGeometry relative="1" as="geometry">
                        <mxPoint x="160" y="450" as="targetPoint"/>
                        <Array as="points">
                            <mxPoint x="100" y="608"/>
                            <mxPoint x="100" y="396"/>
                        </Array>
                    </mxGeometry>
                </mxCell>
                <mxCell id="71" value="ซื้อแก๊สใหม่" style="whiteSpace=wrap;html=1;" vertex="1" parent="mvioNwK95yMqdUQ73LqQ-36">
                    <mxGeometry x="140" y="595" width="100" height="25" as="geometry"/>
                </mxCell>
                <mxCell id="73" value="" style="edgeStyle=none;html=1;endArrow=none;" edge="1" parent="mvioNwK95yMqdUQ73LqQ-36" source="11" target="68">
                    <mxGeometry relative="1" as="geometry">
                        <mxPoint x="-540" y="1031.63" as="sourcePoint"/>
                        <mxPoint x="-540" y="1061.2" as="targetPoint"/>
                    </mxGeometry>
                </mxCell>
                <mxCell id="68" value="" style="shape=waypoint;sketch=0;fillStyle=solid;size=6;pointerEvents=1;points=[];fillColor=none;resizable=0;rotatable=0;perimeter=centerPerimeter;snapToPoint=1;" vertex="1" parent="mvioNwK95yMqdUQ73LqQ-36">
                    <mxGeometry x="180" y="386.42" width="20" height="20" as="geometry"/>
                </mxCell>
                <mxCell id="74" value="" style="shape=waypoint;sketch=0;fillStyle=solid;size=6;pointerEvents=1;points=[];fillColor=none;resizable=0;rotatable=0;perimeter=centerPerimeter;snapToPoint=1;" vertex="1" parent="mvioNwK95yMqdUQ73LqQ-36">
                    <mxGeometry x="314.09000000000003" y="650" width="20" height="20" as="geometry"/>
                </mxCell>
                <mxCell id="75" value="" style="edgeStyle=none;html=1;endArrow=none;" edge="1" parent="mvioNwK95yMqdUQ73LqQ-36" source="25" target="74">
                    <mxGeometry relative="1" as="geometry">
                        <mxPoint x="-405.90999999999985" y="1270" as="sourcePoint"/>
                        <mxPoint x="-405.90999999999985" y="1330" as="targetPoint"/>
                    </mxGeometry>
                </mxCell>
                <mxCell id="76" value="จริง" style="edgeLabel;html=1;align=center;verticalAlign=middle;resizable=0;points=[];" vertex="1" connectable="0" parent="75">
                    <mxGeometry x="-0.4389" y="-3" relative="1" as="geometry">
                        <mxPoint as="offset"/>
                    </mxGeometry>
                </mxCell>
                <mxCell id="78" value="มาม่าสุก" style="whiteSpace=wrap;html=1;" vertex="1" parent="mvioNwK95yMqdUQ73LqQ-36">
                    <mxGeometry x="276.14" y="750" width="95.91" height="22.5" as="geometry"/>
                </mxCell>
                <mxCell id="87" value="" style="edgeStyle=none;html=1;" edge="1" parent="mvioNwK95yMqdUQ73LqQ-36" source="80" target="86">
                    <mxGeometry relative="1" as="geometry"/>
                </mxCell>
                <mxCell id="88" value="เท็จ" style="edgeLabel;html=1;align=center;verticalAlign=middle;resizable=0;points=[];" vertex="1" connectable="0" parent="87">
                    <mxGeometry x="-0.1597" y="-1" relative="1" as="geometry">
                        <mxPoint as="offset"/>
                    </mxGeometry>
                </mxCell>
                <mxCell id="90" value="" style="edgeStyle=none;html=1;startArrow=none;" edge="1" parent="mvioNwK95yMqdUQ73LqQ-36" source="96" target="89">
                    <mxGeometry relative="1" as="geometry"/>
                </mxCell>
                <mxCell id="80" value="มีเครื่องปรุง ?" style="rhombus;whiteSpace=wrap;html=1;" vertex="1" parent="mvioNwK95yMqdUQ73LqQ-36">
                    <mxGeometry x="284.09000000000003" y="860" width="80" height="60" as="geometry"/>
                </mxCell>
                <mxCell id="83" value="" style="shape=waypoint;sketch=0;fillStyle=solid;size=6;pointerEvents=1;points=[];fillColor=none;resizable=0;rotatable=0;perimeter=centerPerimeter;snapToPoint=1;" vertex="1" parent="mvioNwK95yMqdUQ73LqQ-36">
                    <mxGeometry x="180" y="140" width="20" height="20" as="geometry"/>
                </mxCell>
                <mxCell id="99" style="edgeStyle=none;html=1;entryX=0.353;entryY=0.603;entryDx=0;entryDy=0;entryPerimeter=0;" edge="1" parent="mvioNwK95yMqdUQ73LqQ-36" source="86" target="96">
                    <mxGeometry relative="1" as="geometry">
                        <Array as="points">
                            <mxPoint x="152" y="950"/>
                        </Array>
                    </mxGeometry>
                </mxCell>
                <mxCell id="86" value="แกะของอีกซองมาใส่" style="whiteSpace=wrap;html=1;" vertex="1" parent="mvioNwK95yMqdUQ73LqQ-36">
                    <mxGeometry x="99.99" y="870" width="104.09" height="40" as="geometry"/>
                </mxCell>
                <mxCell id="101" value="" style="edgeStyle=none;html=1;" edge="1" parent="mvioNwK95yMqdUQ73LqQ-36" source="89" target="100">
                    <mxGeometry relative="1" as="geometry"/>
                </mxCell>
                <mxCell id="89" value="ใส่เครื่องปรุง" style="whiteSpace=wrap;html=1;" vertex="1" parent="mvioNwK95yMqdUQ73LqQ-36">
                    <mxGeometry x="264.09000000000003" y="970" width="120" height="40" as="geometry"/>
                </mxCell>
                <mxCell id="95" value="" style="edgeStyle=none;html=1;" edge="1" parent="mvioNwK95yMqdUQ73LqQ-36" source="94" target="80">
                    <mxGeometry relative="1" as="geometry"/>
                </mxCell>
                <mxCell id="94" value="เอามาม่าใส่จาน" style="rounded=0;whiteSpace=wrap;html=1;" vertex="1" parent="mvioNwK95yMqdUQ73LqQ-36">
                    <mxGeometry x="276.14" y="800" width="95.91" height="30" as="geometry"/>
                </mxCell>
                <mxCell id="93" value="" style="edgeStyle=none;html=1;" edge="1" parent="mvioNwK95yMqdUQ73LqQ-36" source="78" target="94">
                    <mxGeometry relative="1" as="geometry">
                        <mxPoint x="324" y="800" as="targetPoint"/>
                    </mxGeometry>
                </mxCell>
                <mxCell id="96" value="" style="shape=waypoint;sketch=0;fillStyle=solid;size=6;pointerEvents=1;points=[];fillColor=none;resizable=0;rotatable=0;perimeter=centerPerimeter;snapToPoint=1;" vertex="1" parent="mvioNwK95yMqdUQ73LqQ-36">
                    <mxGeometry x="314.09000000000003" y="940" width="20" height="20" as="geometry"/>
                </mxCell>
                <mxCell id="97" value="" style="edgeStyle=none;html=1;endArrow=none;" edge="1" parent="mvioNwK95yMqdUQ73LqQ-36" source="80" target="96">
                    <mxGeometry relative="1" as="geometry">
                        <mxPoint x="-415.90999999999985" y="1560" as="sourcePoint"/>
                        <mxPoint x="-415.90999999999985" y="1610" as="targetPoint"/>
                    </mxGeometry>
                </mxCell>
                <mxCell id="98" value="จริง" style="edgeLabel;html=1;align=center;verticalAlign=middle;resizable=0;points=[];" vertex="1" connectable="0" parent="97">
                    <mxGeometry x="-0.4012" y="-1" relative="1" as="geometry">
                        <mxPoint as="offset"/>
                    </mxGeometry>
                </mxCell>
                <mxCell id="100" value="สิ้นสุด" style="ellipse;whiteSpace=wrap;html=1;" vertex="1" parent="mvioNwK95yMqdUQ73LqQ-36">
                    <mxGeometry x="284.09000000000003" y="1070" width="80" height="30" as="geometry"/>
                </mxCell>
                <mxCell id="mvioNwK95yMqdUQ73LqQ-70" value="&lt;font data-font-src=&quot;https://fonts.googleapis.com/css?family=Sarabun&quot; face=&quot;Sarabun&quot;&gt;โจทย์ปัญหา&lt;/font&gt;" style="swimlane;whiteSpace=wrap;html=1;" parent="WIyWlLk6GJQsqaUBKTNV-1" vertex="1">
                    <mxGeometry x="-732.5" y="320" width="665" height="310" as="geometry"/>
                </mxCell>
                <mxCell id="mvioNwK95yMqdUQ73LqQ-71" value="&lt;p style=&quot;line-height: 120%;&quot;&gt;&lt;font data-font-src=&quot;https://fonts.googleapis.com/css?family=Sarabun&quot; face=&quot;Sarabun&quot; style=&quot;font-size: 14px;&quot;&gt;&lt;b&gt;&lt;u&gt;โจทย์&lt;/u&gt;&lt;/b&gt; จงเขียน Flowchart เพื่อแสดงขั้นตอนการต้มบะหมี่กึ่งสำเร็จรูป (โดยผู้อ่าน Flowchart คือน้องของคุณ&lt;br&gt;&amp;nbsp; &amp;nbsp; &amp;nbsp; &amp;nbsp; &amp;nbsp; ที่มีอายุ 5 ขวบและกำลังหยิบ Flowchart มาต้มมาม่าให้คุณรับประทาน โดยคุณจะไม่พูดอะไรกับน้องเลย)&lt;br&gt;&lt;/font&gt;&lt;br&gt;&lt;/p&gt;&lt;p style=&quot;line-height: 120%;&quot;&gt;&lt;font face=&quot;Sarabun&quot;&gt;&lt;b&gt;&lt;u&gt;หมายเหตุ&lt;/u&gt;&lt;/b&gt; ทุกขั้นตอนควรมีการอธิบายอย่างละเอียด และเตรียมแก้ไขสำหรับเหตุการณ์ที่อาจผิดพลาดในทุกขั้นตอน&lt;br&gt;&amp;nbsp; &amp;nbsp; &amp;nbsp; &amp;nbsp; &amp;nbsp; เช่น&lt;br&gt;&amp;nbsp; &amp;nbsp; &amp;nbsp; &amp;nbsp; &amp;nbsp; - กรณีให้น้องไปซื้อของที่ตลาด แต่ของหมด ควรดำเนินการอย่างไร?&lt;br&gt;&amp;nbsp; &amp;nbsp; &amp;nbsp; &amp;nbsp; &amp;nbsp; - กรณีให้น้องต้มน้ำ แต่น้ำยังไม่เดือด ควรใส่บะหมี่สำเร็จรูปลงไปเลยไหม&lt;br&gt;&amp;nbsp; &amp;nbsp; &amp;nbsp; &amp;nbsp; &amp;nbsp; - กรณีระหว่างทำกับข้าวแล้วแก้สหมด ควรดำเนินการอย่างไร?&lt;br&gt;&amp;nbsp; &amp;nbsp; &amp;nbsp; &amp;nbsp; &amp;nbsp; - กรณีน้องไปซื้อของ แต่จำนวนเงินไม่พอ ควรทำอย่างไร?&lt;br&gt;&amp;nbsp; &amp;nbsp; &amp;nbsp; &amp;nbsp; &amp;nbsp; - กรณีน้องต้มบะหมี่เสร็จ แต่พึ่งมาทราบภายหลังว่าในซองบะหมี่ไม่มีเครื่องปรุงมาด้วย ต้องทำอย่างไร?&lt;/font&gt;&lt;/p&gt;" style="text;html=1;align=left;verticalAlign=top;resizable=0;points=[];autosize=1;strokeColor=none;fillColor=none;fontSize=14;" parent="mvioNwK95yMqdUQ73LqQ-70" vertex="1">
                    <mxGeometry x="15" y="20" width="650" height="240" as="geometry"/>
                </mxCell>
            </root>
        </mxGraphModel>
    </diagram>
</mxfile>